<svg xmlns="http://www.w3.org/2000/svg" width="47" height="47" viewBox="0 0 47 47">
  <g id="Group_204" data-name="Group 204" transform="translate(-467 -4910)">
    <g id="StableCoin_V0.1.0_Github" transform="translate(467 4911)">
      <g id="Layer_1" data-name="Layer 1">
        <path id="Path_87" data-name="Path 87" d="M23.285,0a23.286,23.286,0,0,0-7.363,45.377c1.164.2,1.6-.495,1.6-1.106,0-.553-.029-2.387-.029-4.337-5.85,1.077-7.364-1.426-7.829-2.736a8.428,8.428,0,0,0-2.387-3.289c-.815-.437-1.982-1.513-.029-1.543,1.833-.029,3.143,1.688,3.58,2.387,2.1,3.522,5.443,2.532,6.781,1.921a4.9,4.9,0,0,1,1.485-3.114c-5.182-.583-10.6-2.591-10.6-11.5a9.065,9.065,0,0,1,2.387-6.258,8.366,8.366,0,0,1,.233-6.17s1.95-.611,6.4,2.387a21.948,21.948,0,0,1,11.642,0c4.453-3.027,6.4-2.387,6.4-2.387a8.366,8.366,0,0,1,.233,6.17,9.012,9.012,0,0,1,2.387,6.258c0,8.936-5.443,10.915-10.624,11.5a5.516,5.516,0,0,1,1.571,4.309c0,3.114-.028,5.617-.028,6.4,0,.611.436,1.339,1.6,1.106A23.3,23.3,0,0,0,23.285,0Z" fill="#f8f9fc" fill-rule="evenodd"/>
      </g>
    </g>
    <rect id="Rectangle_507" data-name="Rectangle 507" width="47" height="47" transform="translate(467 4910)" fill="none"/>
  </g>
</svg>
