<?xml version="1.0" encoding="UTF-8" standalone="no"?>
<!-- Created with Inkscape (http://www.inkscape.org/) -->

<svg
   xmlns:dc="http://purl.org/dc/elements/1.1/"
   xmlns:cc="http://creativecommons.org/ns#"
   xmlns:rdf="http://www.w3.org/1999/02/22-rdf-syntax-ns#"
   xmlns:svg="http://www.w3.org/2000/svg"
   xmlns="http://www.w3.org/2000/svg"
   xmlns:sodipodi="http://sodipodi.sourceforge.net/DTD/sodipodi-0.dtd"
   xmlns:inkscape="http://www.inkscape.org/namespaces/inkscape"
   version="1.1"
   id="svg2"
   xml:space="preserve"
   width="512.00049"
   height="448.0004"
   viewBox="0 0 512.0005 448.0004"
   sodipodi:docname="governance.svg"
   inkscape:version="0.92.3 (2405546, 2018-03-11)"><metadata
     id="metadata8"><rdf:RDF><cc:Work
         rdf:about=""><dc:format>image/svg+xml</dc:format><dc:type
           rdf:resource="http://purl.org/dc/dcmitype/StillImage" /><dc:title></dc:title></cc:Work></rdf:RDF></metadata><defs
     id="defs6" /><sodipodi:namedview
     pagecolor="#ffffff"
     bordercolor="#666666"
     borderopacity="1"
     objecttolerance="10"
     gridtolerance="10"
     guidetolerance="10"
     inkscape:pageopacity="0"
     inkscape:pageshadow="2"
     inkscape:window-width="1920"
     inkscape:window-height="1163"
     id="namedview4"
     showgrid="false"
     inkscape:zoom="0.70710678"
     inkscape:cx="736.58636"
     inkscape:cy="63.365435"
     inkscape:window-x="1920"
     inkscape:window-y="18"
     inkscape:window-maximized="0"
     inkscape:current-layer="g10"
     fit-margin-top="0"
     fit-margin-left="0"
     fit-margin-right="0"
     fit-margin-bottom="0" /><g
     id="g10"
     inkscape:groupmode="layer"
     inkscape:label="ink_ext_XXXXXX"
     transform="matrix(1.3333333,0,0,-1.3333333,0,448.0004)"><g
       id="g12"
       transform="scale(0.0048)"><g
         id="g14"
         transform="scale(4.90798)"><path
           d="M 16300,0 H 0 V 14262.5 H 16300 V 0"
           style="fill:none;fill-opacity:1;fill-rule:nonzero;stroke:none"
           id="path16"
           inkscape:connector-curvature="0" /></g><g
         id="g18"
         transform="scale(3.49866)"><path
           d="M 3147.4,4841.11 8613.09,1664.01 16300,6106.56 10820.9,9256.71 3147.4,4841.11"
           style="fill:#819a94;fill-opacity:1;fill-rule:nonzero;stroke:none"
           id="path20"
           inkscape:connector-curvature="0" /></g><g
         id="g22"
         transform="scale(2.61808)"><path
           d="M 4206.02,16072.9 3859.74,16300 V 7860.38 l 346.28,-206.91 v 8419.43"
           style="fill:#393334;fill-opacity:1;fill-rule:nonzero;stroke:none"
           id="path24"
           inkscape:connector-curvature="0" /></g><g
         id="g26"
         transform="scale(3.57354)"><path
           d="m 3081.45,11775.5 7512.65,4375.8 -248.4,148.7 -7517.94,-4358.1 253.69,-166.4"
           style="fill:#292525;fill-opacity:1;fill-rule:nonzero;stroke:none"
           id="path28"
           inkscape:connector-curvature="0" /></g><g
         id="g30"
         transform="scale(3.54093)"><path
           d="M 10691.7,16300 V 10021.7 L 3109.83,5658.79 V 11883.9 L 10691.7,16300"
           style="fill:#4a4849;fill-opacity:1;fill-rule:nonzero;stroke:none"
           id="path32"
           inkscape:connector-curvature="0" /></g><g
         id="g34"
         transform="scale(3.38682)"><path
           d="M 10649.7,16300 V 10611.2 L 3779.8,6657.98 v 5640.62 l 6869.9,4001.4"
           style="fill:#4ca199;fill-opacity:1;fill-rule:nonzero;stroke:none"
           id="path36"
           inkscape:connector-curvature="0" /></g><g
         id="g38"
         transform="scale(1.84873)"><path
           d="M 5956.36,10838.5 V 9938.28 L 16300,3908.79 v 917.17 L 5956.36,10838.5"
           style="fill:#9fbeb5;fill-opacity:1;fill-rule:nonzero;stroke:none"
           id="path40"
           inkscape:connector-curvature="0" /></g><g
         id="g42"
         transform="scale(3.49866)"><path
           d="M 8613.09,2550.09 16300,6992.62 10820.9,10142.8 3147.4,5727.16 8613.09,2550.09"
           style="fill:#cce5dd;fill-opacity:1;fill-rule:nonzero;stroke:none"
           id="path44"
           inkscape:connector-curvature="0" /></g><g
         id="g46"
         transform="scale(3.49866)"><path
           d="M 16300,6992.62 V 6534.9 L 8613.09,2065.45 v 484.64 L 16300,6992.62"
           style="fill:#b0d0c6;fill-opacity:1;fill-rule:nonzero;stroke:none"
           id="path48"
           inkscape:connector-curvature="0" /></g><g
         id="g50"
         transform="scale(2.11601)"><path
           d="m 7838.23,10994.2 926.56,-490.3 7535.21,4314.6 -902.8,522.2 -7558.97,-4346.5"
           style="fill:#5e6868;fill-opacity:1;fill-rule:nonzero;stroke:none"
           id="path52"
           inkscape:connector-curvature="0" /></g><g
         id="g54"
         transform="scale(3.085)"><path
           d="M 5083.34,6276.31 8788.46,4199.94 16300,8454.42 12574.7,10632.5 5083.34,6276.31"
           style="fill:#aec9bf;fill-opacity:1;fill-rule:nonzero;stroke:none"
           id="path56"
           inkscape:connector-curvature="0" /></g><g
         id="g58"
         transform="scale(2.8095)"><path
           d="M 12785.1,6068.4 13961.5,5394.12 16300,6742.69 15123.6,7424.16 12785.1,6068.4"
           style="fill:#839892;fill-opacity:1;fill-rule:nonzero;stroke:none"
           id="path60"
           inkscape:connector-curvature="0" /></g><g
         id="g62"
         transform="scale(1.32752)"><path
           d="m 13677.4,14247 1098.9,-649.9 1523.7,877 -1088.8,643.2 -1533.8,-870.3"
           style="fill:#4a5554;fill-opacity:1;fill-rule:nonzero;stroke:none"
           id="path64"
           inkscape:connector-curvature="0" /></g><g
         id="g66"
         transform="scale(1.40399)"><path
           d="m 14240.9,14221.4 1039.1,-614.5 1020,582.8 -1029.5,608.2 -1029.6,-576.5"
           style="fill:#4a5554;fill-opacity:1;fill-rule:nonzero;stroke:none"
           id="path68"
           inkscape:connector-curvature="0" /></g><g
         id="g70"
         transform="scale(1.51611)"><path
           d="m 14393.3,13858.5 962.1,-569.1 944.6,539.7 -953.4,563.3 -953.3,-533.9"
           style="fill:#4a5554;fill-opacity:1;fill-rule:nonzero;stroke:none"
           id="path72"
           inkscape:connector-curvature="0" /></g><g
         id="g74"
         transform="scale(1.62882)"><path
           d="m 14525.2,13546.4 895.6,-529.8 879.2,502.4 -887.4,524.3 -887.4,-496.9"
           style="fill:#4a5554;fill-opacity:1;fill-rule:nonzero;stroke:none"
           id="path76"
           inkscape:connector-curvature="0" /></g><g
         id="g78"
         transform="scale(1.7419)"><path
           d="m 14640.4,13276.2 837.5,-495.4 822.1,469.8 -829.8,490.2 -829.8,-464.6"
           style="fill:#4a5554;fill-opacity:1;fill-rule:nonzero;stroke:none"
           id="path80"
           inkscape:connector-curvature="0" /></g><g
         id="g82"
         transform="scale(1.85461)"><path
           d="m 14741.3,13037.4 786.6,-465.3 772.1,441.3 -779.4,460.4 -779.3,-436.4"
           style="fill:#4a5554;fill-opacity:1;fill-rule:nonzero;stroke:none"
           id="path84"
           inkscape:connector-curvature="0" /></g><g
         id="g86"
         transform="scale(1.96673)"><path
           d="m 14830.1,12825 741.7,-438.6 728.2,416.1 -734.9,434.1 -735,-411.6"
           style="fill:#4a5554;fill-opacity:1;fill-rule:nonzero;stroke:none"
           id="path88"
           inkscape:connector-curvature="0" /></g><g
         id="g90"
         transform="scale(2.07944)"><path
           d="m 14909.8,12636.6 701.5,-415 688.7,393.6 -695.1,410.6 -695.1,-389.2"
           style="fill:#4a5554;fill-opacity:1;fill-rule:nonzero;stroke:none"
           id="path92"
           inkscape:connector-curvature="0" /></g><g
         id="g94"
         transform="scale(2.19026)"><path
           d="m 14980.2,12479.1 666,-393.9 653.8,373.6 -659.9,389.8 -659.9,-369.5"
           style="fill:#4a5554;fill-opacity:1;fill-rule:nonzero;stroke:none"
           id="path96"
           inkscape:connector-curvature="0" /></g><g
         id="g98"
         transform="scale(2.30298)"><path
           d="m 15044.8,12325.8 633.4,-374.7 621.8,355.4 -627.6,370.8 -627.6,-351.5"
           style="fill:#4a5554;fill-opacity:1;fill-rule:nonzero;stroke:none"
           id="path100"
           inkscape:connector-curvature="0" /></g><g
         id="g102"
         transform="scale(2.41509)"><path
           d="m 15103,12186 604.1,-357.3 592.9,338.9 -598.5,353.5 -598.5,-335.1"
           style="fill:#4a5554;fill-opacity:1;fill-rule:nonzero;stroke:none"
           id="path104"
           inkscape:connector-curvature="0" /></g><g
         id="g106"
         transform="scale(2.52781)"><path
           d="m 15156.4,12059.4 577.1,-341.3 566.5,323.7 -571.8,337.8 -571.8,-320.2"
           style="fill:#4a5554;fill-opacity:1;fill-rule:nonzero;stroke:none"
           id="path108"
           inkscape:connector-curvature="0" /></g><g
         id="g110"
         transform="scale(1.41772)"><path
           d="m 14260.9,12501.7 1029,-608.6 1010.1,577.3 -1019.5,602.3 -1019.6,-571"
           style="fill:#4a5554;fill-opacity:1;fill-rule:nonzero;stroke:none"
           id="path112"
           inkscape:connector-curvature="0" /></g><g
         id="g114"
         transform="scale(1.53043)"><path
           d="m 14411.1,12269.4 953.1,-563.7 935.8,534.7 -944.4,557.9 -944.5,-528.9"
           style="fill:#4a5554;fill-opacity:1;fill-rule:nonzero;stroke:none"
           id="path116"
           inkscape:connector-curvature="0" /></g><g
         id="g118"
         transform="scale(1.64255)"><path
           d="m 14540,12067.7 888.2,-525.3 871.8,498.2 -880,519.8 -880,-492.7"
           style="fill:#4a5554;fill-opacity:1;fill-rule:nonzero;stroke:none"
           id="path120"
           inkscape:connector-curvature="0" /></g><g
         id="g122"
         transform="scale(1.75526)"><path
           d="m 14653,11893 831.1,-491.6 815.9,466.2 -823.5,486.5 -823.5,-461.1"
           style="fill:#4a5554;fill-opacity:1;fill-rule:nonzero;stroke:none"
           id="path124"
           inkscape:connector-curvature="0" /></g><g
         id="g126"
         transform="scale(1.86834)"><path
           d="m 14752.7,11741.1 780.8,-461.8 766.5,438 -773.6,457.1 -773.7,-433.3"
           style="fill:#4a5554;fill-opacity:1;fill-rule:nonzero;stroke:none"
           id="path128"
           inkscape:connector-curvature="0" /></g><g
         id="g130"
         transform="scale(1.98105)"><path
           d="m 14840.7,11605 736.4,-435.6 722.9,413.1 -729.6,431 -729.7,-408.5"
           style="fill:#4a5554;fill-opacity:1;fill-rule:nonzero;stroke:none"
           id="path132"
           inkscape:connector-curvature="0" /></g><g
         id="g134"
         transform="scale(2.09317)"><path
           d="m 14918.9,11482.2 696.9,-412.2 684.2,391 -690.5,407.9 -690.6,-386.7"
           style="fill:#4a5554;fill-opacity:1;fill-rule:nonzero;stroke:none"
           id="path136"
           inkscape:connector-curvature="0" /></g><g
         id="g138"
         transform="scale(2.20588)"><path
           d="m 14989.5,11373.2 661.3,-391.2 649.2,371 -655.3,387.1 -655.2,-366.9"
           style="fill:#4a5554;fill-opacity:1;fill-rule:nonzero;stroke:none"
           id="path140"
           inkscape:connector-curvature="0" /></g><g
         id="g142"
         transform="scale(2.31671)"><path
           d="m 15052.2,11284.6 629.6,-372.4 618.2,353.2 -623.9,368.6 -623.9,-349.4"
           style="fill:#4a5554;fill-opacity:1;fill-rule:nonzero;stroke:none"
           id="path144"
           inkscape:connector-curvature="0" /></g><g
         id="g146"
         transform="scale(2.46179)"><path
           d="m 14911.3,11047.6 592.6,-350.5 796.1,454 -593.1,350.4 -795.6,-453.9"
           style="fill:#4a5554;fill-opacity:1;fill-rule:nonzero;stroke:none"
           id="path148"
           inkscape:connector-curvature="0" /></g><g
         id="g150"
         transform="scale(2.54153)"><path
           d="m 15162.6,11111.8 573.9,-339.5 563.5,322 -568.7,336 -568.7,-318.5"
           style="fill:#4a5554;fill-opacity:1;fill-rule:nonzero;stroke:none"
           id="path152"
           inkscape:connector-curvature="0" /></g><g
         id="g154"
         transform="scale(2.65425)"><path
           d="m 15210.9,11036.9 549.6,-325.1 539.5,308.3 -544.6,321.7 -544.5,-304.9"
           style="fill:#4a5554;fill-opacity:1;fill-rule:nonzero;stroke:none"
           id="path156"
           inkscape:connector-curvature="0" /></g><g
         id="g158"
         transform="scale(1.54409)"><path
           d="m 14427.8,10696.9 944.7,-558.7 927.5,529.9 -936.1,553 -936.1,-524.2"
           style="fill:#4a5554;fill-opacity:1;fill-rule:nonzero;stroke:none"
           id="path160"
           inkscape:connector-curvature="0" /></g><g
         id="g162"
         transform="scale(1.69098)"><path
           d="m 14260.9,10390.8 862.7,-510.27 1176.4,680.87 -854.8,505 -1184.3,-675.6"
           style="fill:#4a5554;fill-opacity:1;fill-rule:nonzero;stroke:none"
           id="path164"
           inkscape:connector-curvature="0" /></g><g
         id="g166"
         transform="scale(1.76891)"><path
           d="m 14665.8,10523.3 824.6,-487.8 809.6,462.6 -817.1,482.8 -817.1,-457.6"
           style="fill:#4a5554;fill-opacity:1;fill-rule:nonzero;stroke:none"
           id="path168"
           inkscape:connector-curvature="0" /></g><g
         id="g170"
         transform="scale(1.88163)"><path
           d="m 14763.7,10452.9 775.2,-458.56 761.1,434.86 -768.2,453.8 -768.1,-430.1"
           style="fill:#4a5554;fill-opacity:1;fill-rule:nonzero;stroke:none"
           id="path172"
           inkscape:connector-curvature="0" /></g><g
         id="g174"
         transform="scale(1.9947)"><path
           d="m 14850.8,10392.2 731.3,-432.45 717.9,410.25 -724.6,428.1 -724.6,-405.9"
           style="fill:#4a5554;fill-opacity:1;fill-rule:nonzero;stroke:none"
           id="path176"
           inkscape:connector-curvature="0" /></g><g
         id="g178"
         transform="scale(2.10741)"><path
           d="m 14928.3,10336.4 692.2,-409.43 679.5,388.33 -685.9,405.2 -685.8,-384.1"
           style="fill:#4a5554;fill-opacity:1;fill-rule:nonzero;stroke:none"
           id="path180"
           inkscape:connector-curvature="0" /></g><g
         id="g182"
         transform="scale(2.21953)"><path
           d="m 14997.5,10284.7 657.3,-388.75 645.2,368.75 -651.3,384.7 -651.2,-364.7"
           style="fill:#4a5554;fill-opacity:1;fill-rule:nonzero;stroke:none"
           id="path184"
           inkscape:connector-curvature="0" /></g><g
         id="g186"
         transform="scale(2.33225)"><path
           d="m 15060.5,10239.4 625.5,-369.94 614,350.84 -619.8,366.2 -619.7,-347.1"
           style="fill:#4a5554;fill-opacity:1;fill-rule:nonzero;stroke:none"
           id="path188"
           inkscape:connector-curvature="0" /></g><g
         id="g190"
         transform="scale(2.44307)"><path
           d="m 15116.7,10207 597.1,-353.2 586.2,334.9 -591.6,349.6 -591.7,-331.3"
           style="fill:#4a5554;fill-opacity:1;fill-rule:nonzero;stroke:none"
           id="path192"
           inkscape:connector-curvature="0" /></g><g
         id="g194"
         transform="scale(2.55578)"><path
           d="m 15168.9,10169.1 570.8,-337.62 560.3,320.22 -565.5,334.1 -565.6,-316.7"
           style="fill:#4a5554;fill-opacity:1;fill-rule:nonzero;stroke:none"
           id="path196"
           inkscape:connector-curvature="0" /></g><g
         id="g198"
         transform="scale(2.6679)"><path
           d="m 15216.5,10133.1 546.7,-323.38 536.8,306.68 -541.8,320.1 -541.7,-303.4"
           style="fill:#4a5554;fill-opacity:1;fill-rule:nonzero;stroke:none"
           id="path200"
           inkscape:connector-curvature="0" /></g><g
         id="g202"
         transform="scale(2.78061)"><path
           d="m 15260.4,10101.2 524.6,-310.21 515,294.31 -519.8,307.1 -519.8,-291.2"
           style="fill:#4a5554;fill-opacity:1;fill-rule:nonzero;stroke:none"
           id="path204"
           inkscape:connector-curvature="0" /></g><g
         id="g206"
         transform="scale(1.67052)"><path
           d="m 14569.5,9175.4 873.2,-516.49 857.3,489.91 -865.2,511.16 -865.3,-484.58"
           style="fill:#4a5554;fill-opacity:1;fill-rule:nonzero;stroke:none"
           id="path208"
           inkscape:connector-curvature="0" /></g><g
         id="g210"
         transform="scale(1.78323)"><path
           d="m 14678.9,9186.29 818,-483.84 803.1,458.89 -810.5,478.85 -810.6,-453.9"
           style="fill:#4a5554;fill-opacity:1;fill-rule:nonzero;stroke:none"
           id="path212"
           inkscape:connector-curvature="0" /></g><g
         id="g214"
         transform="scale(1.89535)"><path
           d="m 14774.8,9193.82 769.7,-455.17 755.5,431.69 -762.6,450.58 -762.6,-427.1"
           style="fill:#4a5554;fill-opacity:1;fill-rule:nonzero;stroke:none"
           id="path216"
           inkscape:connector-curvature="0" /></g><g
         id="g218"
         transform="scale(2.38449)"><path
           d="m 12514.5,7749.71 611.7,-361.84 3173.8,1819.97 -611.2,361.08 -3174.3,-1819.21"
           style="fill:#4a5554;fill-opacity:1;fill-rule:nonzero;stroke:none"
           id="path220"
           inkscape:connector-curvature="0" /></g><g
         id="g222"
         transform="scale(2.12114)"><path
           d="m 14937.1,9212.12 687.7,-406.76 675.2,385.78 -681.4,402.56 -681.5,-381.58"
           style="fill:#4a5554;fill-opacity:1;fill-rule:nonzero;stroke:none"
           id="path224"
           inkscape:connector-curvature="0" /></g><g
         id="g226"
         transform="scale(2.23385)"><path
           d="m 15005.9,9218.96 653,-386.24 641.1,366.32 -647,382.25 -647.1,-362.33"
           style="fill:#4a5554;fill-opacity:1;fill-rule:nonzero;stroke:none"
           id="path228"
           inkscape:connector-curvature="0" /></g><g
         id="g230"
         transform="scale(2.34597)"><path
           d="m 15067.8,9223.48 621.7,-367.78 610.5,348.81 -616.1,363.99 -616.1,-345.02"
           style="fill:#4a5554;fill-opacity:1;fill-rule:nonzero;stroke:none"
           id="path232"
           inkscape:connector-curvature="0" /></g><g
         id="g234"
         transform="scale(2.45868)"><path
           d="m 15124.2,9229.14 593.3,-350.92 582.5,332.86 -587.9,347.3 -587.9,-329.24"
           style="fill:#4a5554;fill-opacity:1;fill-rule:nonzero;stroke:none"
           id="path236"
           inkscape:connector-curvature="0" /></g><g
         id="g238"
         transform="scale(2.56951)"><path
           d="m 15174.9,9241.84 567.7,-335.78 557.4,318.46 -562.6,332.33 -562.5,-315.01"
           style="fill:#4a5554;fill-opacity:1;fill-rule:nonzero;stroke:none"
           id="path240"
           inkscape:connector-curvature="0" /></g><g
         id="g242"
         transform="scale(2.68222)"><path
           d="m 15222.2,9246.29 543.9,-321.67 533.9,305.08 -538.9,318.36 -538.9,-301.77"
           style="fill:#4a5554;fill-opacity:1;fill-rule:nonzero;stroke:none"
           id="path244"
           inkscape:connector-curvature="0" /></g><g
         id="g246"
         transform="scale(2.79434)"><path
           d="m 15265.4,9248.99 522.1,-308.77 512.5,292.84 -517.3,305.59 -517.3,-289.66"
           style="fill:#4a5554;fill-opacity:1;fill-rule:nonzero;stroke:none"
           id="path248"
           inkscape:connector-curvature="0" /></g><g
         id="g250"
         transform="scale(2.90705)"><path
           d="m 15305.6,9252.82 501.8,-296.83 492.6,281.52 -497.2,293.73 -497.2,-278.42"
           style="fill:#4a5554;fill-opacity:1;fill-rule:nonzero;stroke:none"
           id="path252"
           inkscape:connector-curvature="0" /></g><g
         id="g254"
         transform="scale(4.22234)"><path
           d="M 10712.6,7924.71 13506.3,6312.66 16300,7924.71 13506.3,9505.45 10712.6,7924.71"
           style="fill:#819a94;fill-opacity:1;fill-rule:nonzero;stroke:none"
           id="path256"
           inkscape:connector-curvature="0" /></g><g
         id="g258"
         transform="scale(4.22234)"><path
           d="M 16300,11364.2 V 8163.58 L 13506.3,6551.56 V 9744.34 L 16300,11364.2"
           style="fill:#46c0b3;fill-opacity:1;fill-rule:nonzero;stroke:none"
           id="path260"
           inkscape:connector-curvature="0" /></g><g
         id="g262"
         transform="scale(3.49866)"><path
           d="M 12928.5,13714.8 V 9852.16 L 16300,7906.71 v 3853.19 l -3371.5,1954.9"
           style="fill:#359492;fill-opacity:1;fill-rule:nonzero;stroke:none"
           id="path264"
           inkscape:connector-curvature="0" /></g><g
         id="g266"
         transform="scale(4.28803)"><path
           d="m 16300,11782.5 -3000.6,-1739.5 -3000.6,1739.5 3011.7,1727 2989.5,-1727"
           style="fill:#389d8f;fill-opacity:1;fill-rule:nonzero;stroke:none"
           id="path268"
           inkscape:connector-curvature="0" /></g><g
         id="g270"
         transform="scale(4.28803)"><path
           d="m 16300,10950.2 v 832.3 L 13299.4,10043 V 9210.73 L 16300,10950.2"
           style="fill:#2c7c77;fill-opacity:1;fill-rule:nonzero;stroke:none"
           id="path272"
           inkscape:connector-curvature="0" /></g><g
         id="g274"
         transform="scale(3.49866)"><path
           d="m 12622.4,13420.8 v 1020 l 3677.6,-2132 v -1019.9 l -3677.6,2131.9"
           style="fill:#235d57;fill-opacity:1;fill-rule:nonzero;stroke:none"
           id="path276"
           inkscape:connector-curvature="0" /></g><g
         id="g278"
         transform="scale(3.8329)"><path
           d="m 16300,13592.3 -2130.6,-1245.3 -712.2,429.7 2132.6,1225.4 710.2,-409.8"
           style="fill:#246058;fill-opacity:1;fill-rule:nonzero;stroke:none"
           id="path280"
           inkscape:connector-curvature="0" /></g><g
         id="g282"
         transform="scale(3.8329)"><path
           d="m 15589.8,14002.1 v -820.5 l 710.2,410.7 -710.2,409.8"
           style="fill:#1a3833;fill-opacity:1;fill-rule:nonzero;stroke:none"
           id="path284"
           inkscape:connector-curvature="0" /></g><g
         id="g286"
         transform="scale(3.93731)"><path
           d="m 15401.5,16300 v -3026.9 l -1734.2,-1006.8 v 3012.6 l 1734.2,1021.1"
           style="fill:#c4c2c1;fill-opacity:1;fill-rule:nonzero;stroke:none"
           id="path288"
           inkscape:connector-curvature="0" /></g><g
         id="g290"
         transform="scale(3.7931)"><path
           d="m 15540.8,16300 v -1038.2 l -907.6,-534.1 v 1049.4 l 907.6,522.9"
           style="fill:#f7f7f7;fill-opacity:1;fill-rule:nonzero;stroke:none"
           id="path292"
           inkscape:connector-curvature="0" /></g><g
         id="g294"
         transform="scale(3.61642)"><path
           d="m 16300,15653.9 v -1089 l -951.9,-560.1 v 1100.7 l 951.9,548.4"
           style="fill:#f7f7f7;fill-opacity:1;fill-rule:nonzero;stroke:none"
           id="path296"
           inkscape:connector-curvature="0" /></g><g
         id="g298"
         transform="scale(3.67753)"><path
           d="m 15738.9,15738.2 183.1,526.4 -101.8,35.4 -140.4,-403.5 -482.6,277.5 -53.8,-93.4 595.5,-342.4"
           style="fill:#41b93c;fill-opacity:1;fill-rule:nonzero;stroke:none"
           id="path300"
           inkscape:connector-curvature="0" /></g></g></g></svg>