<?xml version="1.0" encoding="UTF-8" standalone="no"?>
<svg
   xmlns:dc="http://purl.org/dc/elements/1.1/"
   xmlns:cc="http://creativecommons.org/ns#"
   xmlns:rdf="http://www.w3.org/1999/02/22-rdf-syntax-ns#"
   xmlns:svg="http://www.w3.org/2000/svg"
   xmlns="http://www.w3.org/2000/svg"
   xmlns:sodipodi="http://sodipodi.sourceforge.net/DTD/sodipodi-0.dtd"
   xmlns:inkscape="http://www.inkscape.org/namespaces/inkscape"
   version="1.1"
   width="1012.2395"
   height="270.12357"
   viewBox="0 0 1012.2395 270.12357"
   xml:space="preserve"
   id="svg47"
   sodipodi:docname="full_logo.svg"
   inkscape:version="0.92.3 (2405546, 2018-03-11)"><metadata
   id="metadata51"><rdf:RDF><cc:Work
       rdf:about=""><dc:format>image/svg+xml</dc:format><dc:type
         rdf:resource="http://purl.org/dc/dcmitype/StillImage" /><dc:title></dc:title></cc:Work></rdf:RDF></metadata><sodipodi:namedview
   pagecolor="#ffffff"
   bordercolor="#666666"
   borderopacity="1"
   objecttolerance="10"
   gridtolerance="10"
   guidetolerance="10"
   inkscape:pageopacity="0"
   inkscape:pageshadow="2"
   inkscape:window-width="1920"
   inkscape:window-height="1163"
   id="namedview49"
   showgrid="false"
   inkscape:zoom="0.23046875"
   inkscape:cx="-211.42995"
   inkscape:cy="135.0741"
   inkscape:window-x="1920"
   inkscape:window-y="18"
   inkscape:window-maximized="0"
   inkscape:current-layer="svg47" />
<desc
   id="desc2">Created with Fabric.js 3.6.3</desc>
<defs
   id="defs4">
</defs>

<g
   transform="matrix(1.969278,0,0,1.969278,680.40629,133.69105)"
   id="text-logo-path">
<path
   style="opacity:1;fill:#4e42df;fill-rule:nonzero;stroke:#4e42df;stroke-width:0;stroke-linecap:butt;stroke-linejoin:miter;stroke-miterlimit:4;stroke-dasharray:none;stroke-dashoffset:0;paint-order:stroke"
   transform="translate(-171.345,23.075)"
   d="M 7.8,0 H 2.84 l 10.44,-46.14 h 7.45 L 31.17,0 H 26.21 L 23.78,-10.64 H 10.23 Z m 9.15,-40.6 -5.79,25.69 H 22.78 Z M 45.35,0 h -5 V -46.14 H 51.1 q 5.55,0 8.41,2.61 2.86,2.62 2.86,7.34 v 0 12.06 q 0,4.75 -2.85,7.33 -2.84,2.59 -8.42,2.59 v 0 h -5.75 z m 0,-41.88 v 23.44 h 5.75 q 6.31,0 6.31,-5.69 v 0 -12.06 q 0,-2.71 -1.63,-4.2 -1.63,-1.49 -4.68,-1.49 v 0 z m 34.77,25.34 -11.72,-29.6 h 5.27 l 8.94,23.78 8.95,-23.78 h 5.23 L 85.08,-16.47 V 0 H 80.12 Z M 110.97,0 h -6.38 v -7.8 h 6.38 z m 18.1,0 h -4.96 v -46.14 h 19.52 v 4.26 h -14.56 v 16.33 h 11.72 v 4.26 h -11.72 z m 29.43,0 h -4.96 v -46.14 h 4.96 z m 19.14,0 h -4.96 v -46.14 h 2.12 l 1.76,4.61 q 3.4,-5.69 9.47,-5.69 v 0 q 10.43,0 10.43,9.95 v 0 V 0 h -4.95 v -37.27 q 0,-2.7 -1.18,-4.19 -1.18,-1.49 -4.3,-1.49 -3.12,0 -5.76,2.41 -2.63,2.41 -2.63,4.69 v 0 z m 30.89,-8.88 v 0 -7.1 q 0,-9.95 10.22,-9.95 v 0 h 8.22 v -11.62 q 0,-2.56 -1.63,-3.98 -1.63,-1.42 -4.82,-1.42 v 0 q -6.31,0 -6.31,5.4 v 0 4.16 h -4.99 v -3.88 q 0,-4.75 2.81,-7.35 2.81,-2.6 8.49,-2.6 5.69,0 8.57,2.6 2.87,2.6 2.87,7.35 v 0 V 0 h -2.15 l -1.83,-4.54 q -1.49,2.56 -3.9,4.09 -2.41,1.52 -5.33,1.52 v 0 q -10.22,0 -10.22,-9.95 z m 4.96,-7.1 v 7.1 q 0,2.71 1.14,4.2 1.14,1.49 4.12,1.49 2.99,0 5.53,-2.3 2.55,-2.31 2.69,-4.6 v 0 -11.58 h -8.22 q -2.98,0 -4.12,1.49 -1.14,1.49 -1.14,4.2 z M 250.41,0 h -4.96 v -46.14 h 2.11 l 1.77,4.61 q 3.4,-5.69 9.47,-5.69 v 0 q 10.43,0 10.43,9.95 v 0 V 0 h -4.96 v -37.27 q 0,-2.7 -1.17,-4.19 -1.18,-1.49 -4.3,-1.49 -3.12,0 -5.76,2.41 -2.63,2.41 -2.63,4.69 v 0 z m 31.23,-8.88 v 0 -28.39 q 0,-4.75 2.91,-7.35 2.92,-2.6 8.74,-2.6 5.83,0 8.81,2.6 2.98,2.6 2.98,7.35 v 0 6.73 h -4.96 v -6.73 q 0,-5.68 -6.76,-5.68 -6.76,0 -6.76,5.68 v 0 28.39 q 0,5.69 6.76,5.69 6.76,0 6.76,-5.69 v 0 -3.91 h 4.96 v 3.91 q 0,4.75 -2.91,7.35 -2.92,2.6 -8.74,2.6 -5.82,0 -8.81,-2.6 -2.98,-2.6 -2.98,-7.35 z m 34.77,0 v 0 -28.39 q 0,-4.75 2.92,-7.35 2.91,-2.6 8.73,-2.6 5.83,0 8.81,2.6 2.98,2.6 2.98,7.35 v 0 15.6 h -18.48 v 12.79 q 0,5.69 6.76,5.69 6.76,0 6.76,-5.69 v 0 -3.91 h 4.96 v 3.91 q 0,4.75 -2.91,7.35 -2.91,2.6 -8.74,2.6 -5.82,0 -8.8,-2.6 -2.99,-2.6 -2.99,-7.35 z m 4.96,-28.39 v 11.34 h 13.52 v -11.34 q 0,-5.68 -6.76,-5.68 -6.76,0 -6.76,5.68 z"
   id="path9"
   inkscape:connector-curvature="0" />
</g>
<g
   transform="matrix(1.0589511,0,0,1.0589511,147.4057,135.06178)"
   id="logo-logo">
<g
   style="paint-order:stroke"
   id="g44">
		<g
   transform="matrix(1.8625454,0,0,-1.8625454,-28.046102,89.019033)"
   id="g14">
<path
   style="opacity:1;fill:#6045f8;fill-rule:evenodd;stroke:none;stroke-width:1;stroke-linecap:butt;stroke-linejoin:miter;stroke-miterlimit:4;stroke-dasharray:none;stroke-dashoffset:0;paint-order:stroke"
   transform="translate(5.4405,20.6835)"
   d="m 0,0 8.219,-7.201 v -34.166 l -1.054,0.761 0.007,0.008 -26.272,19.103 z"
   id="path12"
   inkscape:connector-curvature="0" />
</g>
		<g
   transform="matrix(1.8625454,0,0,-1.8625454,-69.179701,66.582524)"
   id="g18">
<path
   style="opacity:1;fill:#7953f5;fill-rule:evenodd;stroke:none;stroke-width:1;stroke-linecap:butt;stroke-linejoin:miter;stroke-miterlimit:4;stroke-dasharray:none;stroke-dashoffset:0;paint-order:stroke"
   transform="translate(13.7565,10.309)"
   d="m 0,0 h 5.942 3.64 L -8.74,-20.618 -37.095,0 Z"
   id="path16"
   inkscape:connector-curvature="0" />
</g>
		<g
   transform="matrix(1.8625454,0,0,-1.8625454,-102.83446,72.191651)"
   id="g22">
<path
   style="opacity:1;fill:#9552f7;fill-rule:evenodd;stroke:none;stroke-width:1;stroke-linecap:butt;stroke-linejoin:miter;stroke-miterlimit:4;stroke-dasharray:none;stroke-dashoffset:0;paint-order:stroke"
   transform="translate(19.5245,-9.766)"
   d="m 0,0 h -1.661 -18.694 -18.694 c 4.059,6.513 8.122,13.022 12.187,19.532 z"
   id="path20"
   inkscape:connector-curvature="0" />
</g>
		<g
   transform="matrix(1.8625454,0,0,-1.8625454,-55.156883,-43.730311)"
   id="g26">
<path
   style="opacity:1;fill:#b852f7;fill-rule:evenodd;stroke:none;stroke-width:1;stroke-linecap:butt;stroke-linejoin:miter;stroke-miterlimit:4;stroke-dasharray:none;stroke-dashoffset:0;paint-order:stroke"
   transform="translate(28.1915,-13.494)"
   d="m 0,0 c -6.412,-10.519 -12.872,-21.009 -19.323,-31.505 h -37.06 C -37.623,-1.484 -18.814,28.507 0,58.493 Z"
   id="path24"
   inkscape:connector-curvature="0" />
</g>
		<g
   transform="matrix(1.8625454,0,0,-1.8625454,28.980025,89.019033)"
   id="g30">
<path
   style="opacity:1;fill:#4e42df;fill-rule:evenodd;stroke:none;stroke-width:1;stroke-linecap:butt;stroke-linejoin:miter;stroke-miterlimit:4;stroke-dasharray:none;stroke-dashoffset:0;paint-order:stroke"
   transform="translate(-5.441,20.6835)"
   d="m 0,0 -8.219,-7.201 v -34.166 l 1.054,0.761 -0.007,0.008 26.273,19.103 z"
   id="path28"
   inkscape:connector-curvature="0" />
</g>
		<g
   transform="matrix(1.8625454,0,0,-1.8625454,69.17877,66.582524)"
   id="g34">
<path
   style="opacity:1;fill:#4839d0;fill-rule:evenodd;stroke:none;stroke-width:1;stroke-linecap:butt;stroke-linejoin:miter;stroke-miterlimit:4;stroke-dasharray:none;stroke-dashoffset:0;paint-order:stroke"
   transform="translate(-13.7565,10.309)"
   d="m 0,0 h -5.942 -3.64 L 8.739,-20.618 37.095,0 Z"
   id="path32"
   inkscape:connector-curvature="0" />
</g>
		<g
   transform="matrix(1.8625454,0,0,-1.8625454,102.83353,72.191651)"
   id="g38">
<path
   style="opacity:1;fill:#362b9c;fill-rule:evenodd;stroke:none;stroke-width:1;stroke-linecap:butt;stroke-linejoin:miter;stroke-miterlimit:4;stroke-dasharray:none;stroke-dashoffset:0;paint-order:stroke"
   transform="translate(-19.525,-9.766)"
   d="M 0,0 H 1.661 20.355 39.05 C 34.989,6.513 30.927,13.022 26.862,19.532 Z"
   id="path36"
   inkscape:connector-curvature="0" />
</g>
		<g
   transform="matrix(1.8625454,0,0,-1.8625454,57.025661,-43.730311)"
   id="g42">
<path
   style="opacity:1;fill:#d252f5;fill-rule:evenodd;stroke:none;stroke-width:1;stroke-linecap:butt;stroke-linejoin:miter;stroke-miterlimit:4;stroke-dasharray:none;stroke-dashoffset:0;paint-order:stroke"
   transform="translate(-28.1915,-13.494)"
   d="M 0,0 C 6.412,-10.519 12.871,-21.009 19.322,-31.505 H 56.383 C 37.622,-1.484 18.814,28.507 0,58.493 Z"
   id="path40"
   inkscape:connector-curvature="0" />
</g>
</g>
</g>
</svg>