<?xml version="1.0"?>
<svg xmlns="http://www.w3.org/2000/svg" id="regular" enable-background="new 0 0 24 24" height="512px" viewBox="0 0 24 24" width="512px"><g><path d="m.464 18.897 7.5 3.09c.497.204 1.04-.164 1.036-.697l-.034-5.647c19.12 9.52 12.525 6.236 13.952 6.947.498.243 1.082-.117 1.082-.673v-15.846c0-.91-1.902-1.474-7.616-4.413-.191-.129-.42-.182-.631-.151-.643-.001-.346-.16-4.907 7.269-.409-.672-.846-1.391-1.317-2.165-.767-1.263-.767-1.263-1.026-1.378-.01-.005-.02-.004-.03-.009-.005-.001-.008-.005-.013-.007l-7.407-3.265c-.495-.22-1.053.145-1.053.686v15.565c0 .304.184.578.464.694zm16.393-.971c.884-1.367 2.374-4.203 5.643-9.387v12.171zm-.831-14.77c3.58 1.843 5.318 2.659 6.174 3.089l-6.452 10.533c-.641-1.046-1.83-2.966-4.025-6.563 2.793-4.537 3.878-6.376 4.303-7.059zm-2.305 13.196-4.751-2.388-.014-.007-.033-5.463c1.738 2.844 4.719 7.728 4.798 7.858zm-12.221-12.563 5.91 2.605.083 13.777-5.993-2.469z" data-original="#000000" class="active-path" data-old_color="#000000" fill="#333333"/></g> </svg>
